<svg width="107" height="16" viewBox="0 0 107 16" fill="none" xmlns="http://www.w3.org/2000/svg">
<g clip-path="url(#clip0_663_234)">
<path d="M0 16L1.98288 12.6132H13.4795C14.1315 12.6132 14.5558 12.1586 14.5558 11.4643V9.4978H4.6728C1.72834 9.4978 0.430514 8.10573 0.430514 5.02203V3.69163C0.430514 1.40088 1.70477 0.00175846 3.71593 0.00175846H3.94219V4.96212C3.94219 5.65815 4.36642 6.11101 5.01847 6.11101H14.5903C16.7712 6.11101 18.0737 7.50308 18.0737 9.77092V11.533C18.0737 14.5286 16.6863 16.0088 13.8314 16.0088L0 16ZM68.8979 12.5515H77.7895C79.2617 12.5515 80.1966 11.5841 80.1966 10.0705V5.92775C80.1966 4.41586 79.2617 3.4467 77.7895 3.4467H68.8979V12.5515ZM65.3266 16V0H77.8712C81.6091 0 83.7617 2.29075 83.7617 6.10925V9.89075C83.7617 13.7022 81.6091 16 77.8712 16H65.3266ZM48.0432 12.5515H55.5426C56.9017 12.5515 57.78 11.644 57.78 10.222V5.77621C57.78 4.35419 56.9017 3.4467 55.5426 3.4467H48.0353C46.6762 3.4467 45.7979 4.35419 45.7979 5.77621V10.222C45.801 11.644 46.6762 12.5515 48.0353 12.5515H48.0432ZM55.6321 16H47.9505C44.3257 16 42.2296 13.7621 42.2296 10.0423V5.95771C42.2296 2.23789 44.3257 0 47.9505 0H55.6243C59.2491 0 61.3451 2.23789 61.3451 5.95771V10.0405C61.3451 13.7621 59.2491 16 55.6243 16H55.6321ZM85.2308 16L93.6415 0H98.594L107.005 16H102.92L101.476 13.2476H94.3108L92.3877 9.98061L89.2169 16H85.2308ZM92.4662 9.79912H99.6593L96.0627 2.99383L92.4662 9.79912ZM7.44758 3.32687L5.40499 0H17.7233L15.7405 3.32687H7.44758ZM21.9923 16V0H25.5606V6.23788H30.29L36.435 0.00704996H41.1644L33.3491 7.96123L41.3058 16.007H36.2936L30.1485 9.68634H25.5606V16H21.9923Z" fill="#D9D9D9"/>
</g>
<defs>
<clipPath id="clip0_663_234">
<rect width="107" height="16" fill="white"/>
</clipPath>
</defs>
</svg>
