<svg width="153" height="36" viewBox="0 0 153 36" fill="none" xmlns="http://www.w3.org/2000/svg">
<path d="M17.6269 9.53223L17.7636 9.66721V11.2464L17.6348 11.3737H15.0772L14.9517 11.4977V26.1028L14.8217 26.23H10.4144L10.2744 26.0929V24.5149L10.4022 24.3888H12.9508L13.0863 24.2548V9.66392L13.2207 9.53223H17.6269Z" fill="#D9D9D9"/>
<path d="M21.3599 9.53223H19.7645L19.6289 9.66611V26.1028L19.7589 26.23H24.1663L24.3063 26.0929V24.5149L24.1773 24.3888H21.6288L21.4932 24.2548V9.66392L21.3599 9.53223Z" fill="#D9D9D9"/>
<path fill-rule="evenodd" clip-rule="evenodd" d="M17.1583 35.1584C7.69738 35.1584 0 27.4614 0 17.9997C0 8.53791 7.69738 0.84082 17.1583 0.84082C26.6192 0.84082 34.3177 8.53901 34.3177 17.9997C34.3177 27.4602 26.6204 35.1584 17.1583 35.1584ZM17.1583 2.68115C8.70811 2.68115 1.83929 9.553 1.83929 17.9997C1.83929 26.4463 8.71139 33.3181 17.1583 33.3181C25.6052 33.3181 32.4773 26.4418 32.4773 17.9997C32.4773 9.55739 25.6009 2.68115 17.1583 2.68115Z" fill="#D9D9D9"/>
<path d="M44.1641 19.2779C44.1641 21.0271 45.3895 22.3725 48.1136 22.3725V22.3858C50.9733 22.3858 52.0632 21.0404 52.0632 19.56C52.0632 17.6724 50.5645 16.867 48.658 16.597C46.7516 16.327 46.2072 16.0582 46.2072 15.2516C46.2072 14.7128 46.6194 14.309 47.8414 14.309C49.3391 14.309 49.7479 14.7084 49.7479 15.5161L49.8834 15.65H51.5188L51.6544 15.5161C51.6544 13.8985 50.5645 12.6914 47.977 12.6914C45.3895 12.6914 44.3007 13.9018 44.3007 15.2472C44.3007 17.1303 45.7983 17.7998 47.7048 18.0719C49.6112 18.344 50.1567 18.6096 50.1567 19.5512C50.1567 20.3545 49.4724 20.7583 48.2503 20.7583C46.6149 20.7583 46.0705 20.2195 46.0705 19.2779L45.935 19.1441H44.3007L44.1641 19.2779Z" fill="#D9D9D9"/>
<path fill-rule="evenodd" clip-rule="evenodd" d="M61.3277 22.238L61.1921 22.1031L60.5112 20.3549L60.2378 20.2199H56.8304L56.5583 20.3549L55.8772 22.1031L55.7406 22.238H54.5185L54.3818 22.1031V20.7587L57.5148 12.9563L57.6504 12.8213H59.4213L59.5579 12.9563L62.691 20.7587V22.1031L62.5543 22.238H61.3277ZM58.4692 15.2487L57.247 18.4772L57.3837 18.6111H59.6913L59.8279 18.4772L58.6059 15.2487H58.4692Z" fill="#D9D9D9"/>
<path d="M69.0881 14.4356H71.8122L71.9477 14.3006V12.9563L71.8122 12.8213H64.1854L64.0498 12.9563V14.3006L64.1854 14.4356H66.9095L67.045 14.5705V22.1031L67.1816 22.238H68.816L68.9514 22.1031V14.5705L69.0881 14.4356Z" fill="#D9D9D9"/>
<path fill-rule="evenodd" clip-rule="evenodd" d="M78.758 22.3731C75.8984 22.3731 74.1274 20.3549 74.1274 17.5291C74.1274 14.7034 75.8984 12.6875 78.758 12.6875C81.6177 12.6875 83.3886 14.7045 83.3886 17.5291C83.3886 20.3539 81.6177 22.3731 78.758 22.3731ZM78.758 14.3007C76.9883 14.3007 76.0339 15.6461 76.0339 17.5291C76.0339 19.4123 76.9883 20.7589 78.758 20.7589C80.5278 20.7589 81.4822 19.4135 81.4822 17.5291C81.4822 15.645 80.529 14.3007 78.758 14.3007Z" fill="#D9D9D9"/>
<path d="M86.1128 19.2779C86.1128 21.0271 87.3392 22.3725 90.0623 22.3725V22.3858C92.9231 22.3858 94.0119 21.0404 94.0119 19.56C94.0119 17.6724 92.5153 16.867 90.6078 16.597C88.7002 16.327 88.1558 16.0582 88.1558 15.2516C88.1558 14.7128 88.5681 14.309 89.7901 14.309C91.2889 14.309 91.6966 14.7084 91.6966 15.5161L91.8333 15.65H93.4675L93.6031 15.5161C93.6031 13.8985 92.5142 12.6914 89.9268 12.6914C87.3392 12.6914 86.2493 13.9018 86.2493 15.2472C86.2493 17.1303 87.7459 17.7998 89.6535 18.0719C91.561 18.344 92.1054 18.6096 92.1054 19.5512C92.1054 20.3545 91.421 20.7583 90.1989 20.7583C88.5647 20.7583 88.0203 20.2195 88.0203 19.2779L87.8836 19.1441H86.2493L86.1128 19.2779Z" fill="#D9D9D9"/>
<path d="M104.909 22.238H103.273L103.138 22.1031V18.3368L103.001 18.2018H99.3238L99.1882 18.3368V22.1031L99.0515 22.238H97.4173L97.2817 22.1031V12.9563L97.4173 12.8213H99.0515L99.1882 12.9563V16.4536L99.3238 16.5875H103.001L103.138 16.4536V12.9563L103.273 12.8213H104.909L105.044 12.9563V22.1031L104.909 22.238Z" fill="#D9D9D9"/>
<path d="M108.995 22.238H110.629L110.764 22.1031V12.9563L110.629 12.8213H108.995L108.858 12.9563V22.1031L108.995 22.238Z" fill="#D9D9D9"/>
<path d="M120.843 22.238H114.714L114.578 22.1031V12.9563L114.714 12.8213H116.348L116.485 12.9563V20.4887L116.62 20.6237H120.843L120.979 20.7587V22.1031L120.843 22.238Z" fill="#D9D9D9"/>
<path fill-rule="evenodd" clip-rule="evenodd" d="M130.245 22.238H131.473L131.608 22.1031V20.7587L128.476 12.9563L128.34 12.8213H126.57L126.433 12.9563L123.301 20.7587V22.1031L123.437 22.238H124.659L124.796 22.1031L125.479 20.3549L125.751 20.2199H129.156L129.428 20.3549L130.109 22.1031L130.245 22.238ZM127.381 15.2487H127.524L128.746 18.4772L128.61 18.6111H126.294L126.159 18.4772L127.381 15.2487Z" fill="#D9D9D9"/>
<path fill-rule="evenodd" clip-rule="evenodd" d="M139.366 22.238H134.735L134.599 22.1031V12.9563L134.735 12.8213H139.094C140.456 12.8213 141.817 13.494 141.817 15.2432C141.817 16.1848 141.409 16.9914 140.456 17.2603V17.3952C141.545 17.6641 142.09 18.4718 142.09 19.6822C142.09 21.5653 140.728 22.238 139.366 22.238ZM138.822 14.4356H136.642L136.506 14.5705V16.4558L136.642 16.5908H138.822C139.638 16.5908 139.91 16.052 139.91 15.5143C139.91 14.8416 139.638 14.4377 138.822 14.4377V14.4356ZM138.822 18.2018H136.642L136.506 18.3368V20.4887L136.642 20.6237H138.822C139.775 20.6237 140.184 20.2199 140.184 19.4166C140.184 18.6134 139.775 18.2094 138.822 18.2094V18.2018Z" fill="#D9D9D9"/>
<path d="M144.814 19.2779C144.814 21.0271 146.04 22.3725 148.764 22.3725V22.3858C151.624 22.3858 152.714 21.0404 152.714 19.56C152.714 17.6724 151.215 16.867 149.308 16.597C147.402 16.327 146.857 16.0582 146.857 15.2516C146.857 14.7128 147.27 14.309 148.492 14.309C149.989 14.309 150.398 14.7084 150.398 15.5161L150.535 15.65H152.168L152.305 15.5161C152.305 13.8985 151.215 12.6914 148.627 12.6914C146.04 12.6914 144.95 13.9018 144.95 15.2472C144.95 17.1303 146.449 17.7998 148.355 18.0719C150.262 18.344 150.807 18.6096 150.807 19.5512C150.807 20.3545 150.122 20.7583 148.9 20.7583C147.266 20.7583 146.721 20.2195 146.721 19.2779L146.585 19.1441H144.95L144.814 19.2779Z" fill="#D9D9D9"/>
</svg>
