<svg width="103" height="30" viewBox="0 0 103 30" fill="none" xmlns="http://www.w3.org/2000/svg">
<g clip-path="url(#clip0_663_207)">
<path fill-rule="evenodd" clip-rule="evenodd" d="M44.2418 12.247C45.2993 12.247 46.0356 12.9047 46.1677 13.9298L48.868 13.6977C48.6981 12.5178 48.1694 11.57 47.3196 10.8736C46.47 10.1774 45.4503 9.82903 44.2418 9.82903C42.7689 9.82903 41.5605 10.2934 40.6354 11.2219C39.71 12.1504 39.238 13.4269 39.238 15.0322C39.238 16.6376 39.71 17.8948 40.6354 18.8426C41.5605 19.7711 42.7689 20.2352 44.2418 20.2352C45.4503 20.2352 46.47 19.8871 47.3196 19.2101C48.1694 18.5331 48.6791 17.6048 48.868 16.4249L46.1867 16.1736C46.0356 17.1792 45.3181 17.7982 44.2418 17.7982C42.9391 17.7982 42.0324 16.7537 42.0324 15.0322C42.0324 13.2721 42.9391 12.247 44.2418 12.247ZM25.1849 2.72253C23.0091 1.06268 20.035 0.213624 16.3571 0.0371006C15.8687 0.013706 15.3698 0 14.8566 0C14.2435 0 13.6489 0.016069 13.0713 0.0477346C9.76356 0.228512 7.04282 0.936496 4.95514 2.26195C1.88298 4.49012 0.341222 8.28975 0.0516933 13.3265C0.0178492 13.9163 0 14.522 0 15.1451C0 15.6678 0.0136767 16.1761 0.037553 16.6735C0.264726 21.4276 1.59067 25.0257 4.24349 27.2775C6.41925 28.9373 9.39332 29.7866 13.0713 29.9629C13.5599 29.9863 14.0585 30 14.5717 30C15.1849 30 15.7794 29.984 16.3571 29.9523C19.6648 29.7715 22.3855 29.0635 24.4734 27.7381C27.5454 25.5098 29.0874 21.7103 29.3766 16.6735C29.4105 16.0838 29.4286 15.478 29.4286 14.8549C29.4286 14.3322 29.4147 13.8239 29.3908 13.3265C29.1637 8.57238 27.8379 4.97432 25.1849 2.72253ZM9.80922 15C9.80922 16.8508 10.7951 18.4664 12.2611 19.3309L9.80829 23.6624C6.8766 21.9331 4.90438 18.7013 4.90438 15C4.90438 9.47653 9.29672 4.99913 14.7141 4.99913C16.5009 4.99913 18.1763 5.48617 19.6194 6.33783L17.1664 10.6691C16.4449 10.2431 15.6072 9.99966 14.7141 9.99966C12.0052 9.99966 9.80922 12.2382 9.80922 15ZM19.6186 23.6607C18.4459 24.3515 16.9461 23.942 16.2688 22.7457C15.5963 21.5586 15.9878 20.0431 17.1413 19.346C17.1566 19.3374 17.172 19.3285 17.1865 19.3191C18.3567 18.6443 19.8436 19.0569 20.5162 20.2456C21.1938 21.4416 20.7921 22.9707 19.6186 23.6607ZM101.526 11.2604C100.564 10.3128 99.318 9.82903 97.8073 9.82903C96.2966 9.82903 95.0504 10.3128 94.0687 11.2604C93.1055 12.2082 92.6143 13.4657 92.6143 15.0322C92.6143 16.5797 93.1055 17.8369 94.0687 18.8039C95.0504 19.7517 96.2966 20.2352 97.8073 20.2352C99.318 20.2352 100.564 19.7517 101.526 18.8039C102.508 17.8369 103 16.5797 103 15.0322C103 13.4657 102.508 12.2082 101.526 11.2604ZM99.5444 17.0632C99.1101 17.5467 98.5246 17.7982 97.8073 17.7982C97.0891 17.7982 96.5036 17.5467 96.0702 17.0632C95.635 16.5797 95.4086 15.9027 95.4086 15.0322C95.4086 14.1618 95.635 13.4848 96.0702 13.0013C96.5036 12.4985 97.0891 12.247 97.8073 12.247C98.5246 12.247 99.1101 12.4985 99.5444 13.0013C99.9787 13.4848 100.205 14.1618 100.205 15.0322C100.205 15.9027 99.9787 16.5797 99.5444 17.0632ZM50.6471 20.0226H53.4041V4.9937H50.6471V20.0226ZM89.4554 5.0516C88.0771 4.97432 87.2273 6.98579 88.2848 7.95301C88.9079 8.59128 90.003 8.59128 90.6261 7.95301C90.9471 7.6243 91.117 7.21808 91.117 6.75373C91.117 5.80613 90.3805 5.0516 89.4554 5.0516ZM81.5489 15.9027L79.264 10.0226H76.224L80.4348 20.0226H82.6439L86.8548 10.0226H83.8146L81.5489 15.9027ZM88.0771 20.0226H90.834V10.0226H88.0771V20.0226ZM71.2823 9.82903C69.8094 9.82903 68.6198 10.2934 67.6947 11.2413C66.7692 12.1695 66.316 13.4269 66.316 15.0322C66.316 16.6182 66.7692 17.8754 67.6947 18.8232C68.6198 19.7711 69.847 20.2352 71.3577 20.2352C72.5095 20.2352 73.4914 19.9259 74.3223 19.3261C75.1718 18.7266 75.6818 17.9335 75.8517 16.9857L73.0761 16.8503C72.8683 17.5854 72.2641 17.9529 71.2823 17.9529C70.0549 17.9529 69.2994 17.1792 69.2429 15.9221H75.9464V14.8001C75.9464 13.2527 75.5306 12.0343 74.6811 11.1637C73.8313 10.2741 72.6984 9.82903 71.2823 9.82903ZM69.2429 14.0458C69.3184 12.7886 70.0737 12.0343 71.2633 12.0343C72.4717 12.0343 73.1139 12.7886 73.1704 14.0458H69.2429ZM60.2526 9.82903C58.7797 9.82903 57.5901 10.2934 56.6649 11.2413C55.7398 12.1695 55.2866 13.4269 55.2866 15.0322C55.2866 16.6182 55.7398 17.8754 56.6649 18.8232C57.5901 19.7711 58.8175 20.2352 60.3282 20.2352C61.4801 20.2352 62.4618 19.9259 63.2926 19.3261C64.1424 18.7266 64.6522 17.9335 64.8223 16.9857L62.0464 16.8503C61.8387 17.5854 61.2346 17.9529 60.2526 17.9529C59.0252 17.9529 58.27 17.1792 58.2132 15.9221H64.9166V14.8001C64.9166 13.2527 64.5012 12.0343 63.6514 11.1637C62.8018 10.2741 61.6688 9.82903 60.2526 9.82903ZM58.2132 14.0458C58.2887 12.7886 59.0442 12.0343 60.2337 12.0343C61.4423 12.0343 62.0841 12.7886 62.1409 14.0458H58.2132Z" fill="#D9D9D9"/>
</g>
<defs>
<clipPath id="clip0_663_207">
<rect width="103" height="30" fill="white"/>
</clipPath>
</defs>
</svg>
