<svg width="130" height="50" viewBox="0 0 130 50" fill="none" xmlns="http://www.w3.org/2000/svg">
<path d="M9.60986 17.2736H19.3746V19.5714H12.2611V23.8572H19.1539V26.1548H12.2611V32.7383H9.60986V17.2736ZM22.3576 28.1431V21.8688C22.3576 18.9748 24.5669 17.0307 27.5714 17.0307H28.5214C31.526 17.0307 33.7132 18.9748 33.7132 21.8688V28.1431C33.7132 31.0372 31.526 32.9813 28.5214 32.9813H27.5714C24.5669 32.9813 22.3576 31.0372 22.3576 28.1431ZM28.5213 30.6837C28.8635 30.714 29.2083 30.6693 29.5315 30.5526C29.8547 30.436 30.1485 30.2503 30.3925 30.0084C30.6365 29.7665 30.8248 29.4742 30.9443 29.1521C31.0637 28.8299 31.1114 28.4856 31.0841 28.1431V21.8688C31.1076 21.5272 31.0573 21.1845 30.9366 20.8641C30.8158 20.5437 30.6274 20.2531 30.3842 20.012C30.141 19.771 29.8487 19.5852 29.5272 19.4673C29.2057 19.3494 28.8626 19.3021 28.5213 19.3288H27.5713C27.2291 19.2984 26.8844 19.3431 26.5612 19.4597C26.2381 19.5763 25.9443 19.762 25.7002 20.0039C25.4562 20.2457 25.2679 20.5378 25.1485 20.8599C25.029 21.182 24.9812 21.5263 25.0085 21.8688V28.1431C24.9793 28.486 25.0257 28.8311 25.1445 29.1542C25.2633 29.4772 25.4515 29.7702 25.6959 30.0125C25.9404 30.2548 26.235 30.4405 26.559 30.5564C26.8831 30.6724 27.2286 30.7158 27.5713 30.6837H28.5213ZM37.3363 28.1431V21.8688C37.3363 18.9748 39.5456 17.0307 42.5501 17.0307H43.5001C46.5046 17.0307 48.6918 18.9748 48.6918 21.8688V28.1431C48.6918 31.0372 46.5046 32.9813 43.5001 32.9813H42.5501C39.5456 32.9813 37.3363 31.0372 37.3363 28.1431ZM43.4999 30.6837C43.8421 30.714 44.1868 30.6693 44.51 30.5526C44.8332 30.436 45.1271 30.2502 45.3711 30.0083C45.6151 29.7664 45.8033 29.4742 45.9228 29.1521C46.0422 28.8299 46.0899 28.4856 46.0626 28.1431V21.8688C46.0861 21.5272 46.0358 21.1845 45.9151 20.8641C45.7943 20.5437 45.6059 20.2531 45.3627 20.0121C45.1195 19.771 44.8272 19.5852 44.5058 19.4673C44.1843 19.3494 43.8412 19.3021 43.4999 19.3288H42.5499C42.2077 19.2984 41.863 19.3431 41.5398 19.4597C41.2167 19.5763 40.9229 19.762 40.6789 20.0039C40.4349 20.2457 40.2466 20.5378 40.1271 20.8599C40.0076 21.182 39.9599 21.5263 39.9872 21.8688V28.1431C39.9579 28.486 40.0044 28.8311 40.1231 29.1541C40.2419 29.4772 40.4302 29.7702 40.6746 30.0125C40.919 30.2548 41.2136 30.4405 41.5376 30.5564C41.8617 30.6724 42.2072 30.7158 42.5499 30.6837H43.4999ZM55.5185 19.5714H50.7244V17.2736H62.8752V19.5714H58.1474V32.7383H55.5185V19.5714ZM64.8199 28.0548H67.4489V28.3419C67.4489 29.9326 68.6198 30.6837 70.1884 30.6837H71.0057C72.5743 30.6837 73.6347 29.9105 73.6347 28.3198C73.6347 26.7513 72.5747 26.1548 71.0057 26.1548H70.1663C67.1838 26.1548 64.9304 24.7409 64.9304 21.7585C64.9304 18.7985 67.1838 17.0307 70.1663 17.0307H70.9174C73.8999 17.0307 76.1754 18.7097 76.1754 21.6922V21.9797H73.5464V21.6926C73.5464 20.1019 72.4639 19.3287 70.8953 19.3287H70.1663C69.8319 19.282 69.4914 19.3098 69.169 19.4099C68.8466 19.5101 68.5503 19.6802 68.3013 19.9081C68.0523 20.1361 67.8566 20.4162 67.7284 20.7285C67.6001 21.0407 67.5424 21.3775 67.5594 21.7147C67.5594 23.2611 68.6194 23.8576 70.1663 23.8576H71.0057C73.9657 23.8576 76.2637 25.2936 76.2637 28.2761C76.2637 31.2361 74.0102 32.9817 71.0057 32.9817H70.1663C67.1838 32.9817 64.8199 31.3248 64.8199 28.3423V28.0548ZM80.3509 17.2736H83.002V23.8572H89.0773V17.2736H91.7063V32.7383H89.0773V26.1548H83.0018V32.7383H80.3507L80.3509 17.2736ZM95.9922 28.1431V21.8688C95.9922 18.9748 98.2015 17.0307 101.206 17.0307H102.156C105.16 17.0307 107.348 18.9748 107.348 21.8688V28.1431C107.348 31.0372 105.16 32.9813 102.156 32.9813H101.206C98.2015 32.9813 95.9922 31.0372 95.9922 28.1431ZM102.156 30.6837C102.498 30.714 102.843 30.6693 103.166 30.5526C103.489 30.436 103.783 30.2502 104.027 30.0083C104.271 29.7664 104.459 29.4742 104.579 29.1521C104.698 28.8299 104.746 28.4856 104.719 28.1431V21.8688C104.742 21.5272 104.692 21.1845 104.571 20.8641C104.45 20.5437 104.262 20.2531 104.019 20.0121C103.776 19.771 103.483 19.5852 103.162 19.4673C102.84 19.3494 102.497 19.3021 102.156 19.3288H101.206C100.864 19.2984 100.519 19.3431 100.196 19.4597C99.8728 19.5763 99.579 19.762 99.335 20.0039C99.091 20.2457 98.9027 20.5378 98.7832 20.8599C98.6637 21.182 98.616 21.5263 98.6433 21.8688V28.1431C98.6141 28.486 98.6605 28.8311 98.7792 29.1541C98.898 29.4772 99.0863 29.7702 99.3307 30.0125C99.5751 30.2548 99.8697 30.4405 100.194 30.5564C100.518 30.6724 100.863 30.7158 101.206 30.6837H102.156ZM111.612 17.2737H117.554C118.168 17.2375 118.782 17.3253 119.361 17.532C119.94 17.7387 120.471 18.0599 120.922 18.4765C121.374 18.8932 121.737 19.3966 121.99 19.9567C122.242 20.5168 122.379 21.1221 122.393 21.7365C122.376 22.3479 122.237 22.9498 121.983 23.5061C121.728 24.0624 121.364 24.5617 120.913 24.9742C120.461 25.3866 119.931 25.7038 119.354 25.9066C118.777 26.1095 118.165 26.1939 117.554 26.1549H114.263V32.7384H111.612V17.2737ZM117.51 23.8573C117.797 23.866 118.083 23.8171 118.35 23.7133C118.618 23.6096 118.862 23.4532 119.068 23.2533C119.274 23.0534 119.438 22.8142 119.55 22.5499C119.662 22.2855 119.72 22.0014 119.72 21.7144C119.72 21.4273 119.662 21.1432 119.55 20.8788C119.438 20.6145 119.274 20.3753 119.068 20.1754C118.862 19.9756 118.618 19.8191 118.35 19.7154C118.083 19.6116 117.797 19.5627 117.51 19.5715H114.263V23.8573H117.51Z" fill="#D9D9D9"/>
<path d="M34.5717 45.6808C34.4863 45.6808 34.4019 45.6639 34.3232 45.6308C34.2445 45.5978 34.1732 45.5493 34.1136 45.4884C33.2617 44.6371 32.6738 43.5581 32.4203 42.3809C32.1668 41.2036 32.2586 39.9782 32.6847 38.8519L32.8726 31.8579L32.8743 31.8244C33.2506 27.0735 33.5305 22.2501 33.7065 17.4884C33.7072 17.4699 33.7086 17.4515 33.7109 17.4331C34.0957 14.3416 33.9707 11.208 33.3409 8.15706C32.2927 7.47336 30.7555 7.01866 28.926 9.48606C28.8881 9.53719 28.8428 9.58239 28.7916 9.62016C26.2698 11.4802 23.8131 13.4885 21.4896 15.5881C20.5387 16.419 19.6104 17.3514 18.7127 18.2531C16.9564 20.1853 14.9463 21.8704 12.7372 23.2625C12.6639 23.3047 12.5829 23.3321 12.499 23.3429C12.415 23.3538 12.3298 23.3479 12.2481 23.3256C12.1665 23.3034 12.0901 23.2652 12.0233 23.2132C11.9565 23.1612 11.9006 23.0966 11.8589 23.0229C11.8172 22.9493 11.7905 22.8681 11.7804 22.7841C11.7702 22.7001 11.7768 22.6149 11.7997 22.5334C11.8226 22.452 11.8615 22.3758 11.914 22.3095C11.9665 22.2431 12.0316 22.1877 12.1056 22.1467C14.2107 20.8087 16.1272 19.1949 17.804 17.3484C18.7171 16.4312 19.6614 15.4827 20.6379 14.6297C22.9613 12.5297 25.4252 10.5142 27.9542 8.64456C30.3534 5.47076 32.7199 6.13096 34.2884 7.25166C34.4182 7.34453 34.5088 7.48248 34.5424 7.63856C35.2455 10.8986 35.3958 14.2535 34.9869 17.5634C34.8104 22.3283 34.5302 27.1548 34.154 31.9089L33.964 38.9747C33.9624 39.0343 33.9525 39.0934 33.9346 39.1503C33.5963 39.9886 33.4893 40.9024 33.6248 41.7963C33.7602 42.6901 34.1331 43.5312 34.7046 44.2318C36.6063 43.1289 38.1047 41.4456 38.9799 39.429C38.9979 39.3884 39.0201 39.3498 39.0461 39.3139C41.4713 35.9495 43.3151 32.2022 44.5009 28.228C44.505 28.2143 44.5096 28.2008 44.5146 28.1875C46.1827 23.7291 47.7646 18.8986 49.2159 13.83C49.2471 13.7209 49.3067 13.622 49.3886 13.5435C49.4706 13.465 49.5719 13.4097 49.6822 13.3831C49.7925 13.3566 49.9079 13.3598 50.0166 13.3924C50.1253 13.425 50.2233 13.4859 50.3008 13.5689C51.365 14.7081 51.5854 16.5398 51.7798 18.1558C51.8392 18.7494 51.9296 19.3396 52.0507 19.9238L52.1231 20.1659C53.6212 20.5396 55.0355 21.192 56.2923 22.089C59.6665 23.423 63.0854 24.6751 66.5491 25.8455C66.6351 25.8058 66.7231 25.7708 66.8129 25.7406C66.8983 25.7118 66.9889 25.7014 67.0786 25.7101C67.1683 25.7187 67.2553 25.7462 67.3337 25.7907C67.4121 25.8351 67.4802 25.8957 67.5337 25.9683C67.5871 26.0409 67.6246 26.124 67.6438 26.2121C71.7338 27.5701 75.8671 28.8074 80.0125 29.9141L97.5025 34.1009L97.5288 34.1078C103.266 35.7438 109.198 36.5961 115.163 36.6415C114.883 35.0355 114.215 33.5223 113.217 32.2328C112.22 30.9433 110.923 29.9165 109.439 29.2415C109.383 29.2126 109.331 29.1755 109.285 29.1315C104.362 24.3559 99.0878 19.9557 93.5073 15.9678L93.4912 15.9561C92.4782 15.1836 91.4139 14.4128 90.3846 13.6674C87.3308 11.6026 84.4846 9.2462 81.8863 6.63136C81.8009 6.53944 81.7443 6.42449 81.7236 6.30075C81.7029 6.177 81.7189 6.0499 81.7698 5.93519C81.8206 5.82048 81.9039 5.7232 82.0095 5.6554C82.1151 5.5876 82.2382 5.55226 82.3637 5.55376C85.0528 5.58898 87.7123 6.12126 90.2079 7.12376C93.7152 8.05476 97.2821 8.94856 100.81 9.78066C101.896 10.0414 103.001 10.2962 104.07 10.5424C106.353 11.0686 108.714 11.6124 111.02 12.2442C111.182 12.2904 111.32 12.3989 111.403 12.5461C111.486 12.6933 111.507 12.8673 111.463 13.0303C111.418 13.1932 111.311 13.332 111.164 13.4164C111.018 13.5008 110.844 13.524 110.681 13.481C108.4 12.8564 106.053 12.3153 103.782 11.792C102.711 11.545 101.603 11.2896 100.514 11.0282C96.9638 10.1909 93.3725 9.29066 89.8416 8.35316C89.8164 8.34651 89.7917 8.33829 89.7676 8.32856C87.9135 7.58131 85.9608 7.10707 83.9705 6.92066C86.2254 8.98557 88.6199 10.8928 91.1368 12.6289C92.1697 13.3769 93.2375 14.1503 94.2607 14.9302C99.8649 18.9354 105.163 23.3526 110.111 28.1452C111.869 28.9784 113.384 30.2488 114.511 31.8348C115.638 33.4209 116.339 35.2695 116.547 37.204C116.559 37.2939 116.551 37.3853 116.524 37.472C116.497 37.5587 116.453 37.6387 116.393 37.7069C116.333 37.775 116.259 37.8296 116.177 37.8672C116.094 37.9047 116.005 37.9244 115.914 37.9248C109.583 37.9477 103.28 37.0792 97.191 35.3448L79.7056 31.1597L79.6895 31.1557C75.609 30.0664 71.5395 28.8512 67.5118 27.5197C67.2309 30.0638 66.3046 32.494 64.8208 34.5797C64.7014 34.8942 64.545 35.1934 64.3549 35.471C63.9949 37.0465 63.6149 38.6625 63.1319 40.2404C63.0896 40.3785 63.0019 40.4983 62.883 40.5803C62.7641 40.6624 62.6209 40.7019 62.4768 40.6924L61.6368 40.6372C61.5408 40.6308 61.4475 40.603 61.3638 40.5558C61.2801 40.5085 61.2081 40.443 61.1531 40.3642C60.3274 39.1808 59.5223 37.9706 58.7445 36.7442C58.4238 36.4636 58.1516 36.1322 57.9388 35.7631C55.3851 33.918 53.66 31.1421 53.1366 28.0355L53.012 27.6186C51.5945 25.5086 50.0348 23.3264 48.3193 21.1649C47.483 23.741 46.6154 26.2319 45.7231 28.6177C44.5024 32.7001 42.6104 36.5507 40.1247 40.0116C39.0618 42.4206 37.2085 44.3946 34.8713 45.6071C34.7789 45.6557 34.676 45.681 34.5717 45.6808ZM62.029 39.3769L62.051 39.3783C62.3095 38.4919 62.539 37.5902 62.754 36.6913C62.4213 36.8023 62.0749 36.8668 61.7246 36.8829C61.384 37.0831 61.01 37.22 60.6207 37.2871C61.0821 37.9913 61.5516 38.6879 62.029 39.3769ZM59.7061 35.865C59.8001 35.9279 59.904 35.975 60.0134 36.0042C60.2217 36.0357 60.4343 36.0252 60.6385 35.9733C60.8428 35.9214 61.0346 35.8292 61.2027 35.7021C61.3012 35.6412 61.4144 35.6082 61.5303 35.6066C61.8372 35.6209 62.1434 35.5663 62.4265 35.4468C62.7095 35.3273 62.9622 35.1459 63.1661 34.916L63.2114 34.7173C63.4347 33.7373 63.6657 32.724 63.918 31.7273C63.9998 31.4042 64.074 31.0106 64.1526 30.5939C64.3104 29.261 64.7405 27.9748 65.4162 26.8151C62.1588 25.7017 58.9366 24.5146 55.7496 23.2536C55.7019 23.2347 55.6567 23.2102 55.6149 23.1806C54.6809 22.5096 53.6504 21.9846 52.5586 21.6235L54.185 27.0652C55.5958 29.1726 56.8662 31.2062 58.0116 33.0791C58.5598 34.0151 59.1246 34.9438 59.7061 35.865ZM66.1021 28.192C65.7853 29.0258 65.5579 29.8909 65.4237 30.7727C65.7216 29.9329 65.9486 29.0697 66.1021 28.192ZM49.9328 21.1436C50.5909 21.9921 51.2257 22.8401 51.8373 23.6876L51.1146 21.2697C50.7235 21.2042 50.3288 21.1621 49.9328 21.1436ZM49.4618 19.8498C49.8884 19.8496 50.3148 19.8734 50.7388 19.9212C50.6405 19.422 50.5751 18.8784 50.5067 18.309C50.4283 17.4112 50.2658 16.5229 50.0213 15.6556C49.6019 17.0822 49.1726 18.4878 48.7336 19.8724C48.9774 19.8572 49.2201 19.8498 49.4618 19.8498Z" fill="#D9D9D9"/>
</svg>
