<svg width="113" height="28" viewBox="0 0 113 28" fill="none" xmlns="http://www.w3.org/2000/svg">
<g clip-path="url(#clip0_663_193)">
<path d="M6.90058 0L0 6.9525V13.9078H6.90058V6.9525H26.5187V0H6.90058Z" fill="#D9D9D9"/>
<path d="M6.90058 14L0 20.9532V27.9079H6.90058V20.9532H26.5187V14H6.90058Z" fill="#D9D9D9"/>
<path d="M41.5156 20.8159V6.9082H50.3856V9.3723H44.1405V12.6104H49.9884V15.0746H44.1405V20.8159H41.5156Z" fill="#D9D9D9"/>
<path d="M59.1542 10.9609V16.0604C59.1542 17.8126 58.3095 18.8098 56.7143 18.8098C55.2975 18.8098 54.5115 17.9933 54.5115 16.618V10.9609H52.0322V16.8574C52.0322 19.4275 53.6648 21.0003 55.8285 21.0003C57.6203 21.0003 58.5245 20.1642 58.9189 19.2482H59.1935V20.8421H61.6334V10.9609H59.1542Z" fill="#D9D9D9"/>
<path d="M65.4988 10.9054V7.8291H67.9935V10.9054H70.686V13.1037H67.9935V18.019C67.9935 18.4193 68.1904 18.6188 68.5472 18.6188H70.1304V20.8157H67.4389C66.3298 20.8157 65.4988 20.0166 65.4988 18.8983V13.1037H63.0049V10.9054H65.4988Z" fill="#D9D9D9"/>
<path d="M79.5472 10.9609V16.0604C79.5472 17.8126 78.6998 18.8098 77.1064 18.8098C75.6896 18.8098 74.9026 17.9933 74.9026 16.618V10.9609H72.4243V16.8574C72.4243 19.4275 74.0578 21.0003 76.2215 21.0003C78.0123 21.0003 78.9175 20.1642 79.3102 19.2482H79.5856V20.8421H82.0255V10.9609H79.5472Z" fill="#D9D9D9"/>
<path d="M84.4946 12.7861C84.4946 11.6681 85.324 10.8691 86.4321 10.8691H90.621V13.0655H87.5377C87.1817 13.0655 86.9849 13.2649 86.9849 13.6653V20.8163H84.4946V12.7861Z" fill="#D9D9D9"/>
<path fill-rule="evenodd" clip-rule="evenodd" d="M91.1699 15.8081C91.1699 18.8677 93.2904 21.0923 96.2254 21.0923C98.864 21.0923 100.014 19.7028 100.688 18.6696L98.5462 17.4378C98.2086 18.1331 97.5743 18.9083 96.1871 18.9083C94.7593 18.9083 93.8257 17.8944 93.7664 16.6236H101.046V15.6504C101.046 12.6912 99.0423 10.6846 96.1871 10.6846C93.2904 10.6846 91.1699 12.8295 91.1699 15.8081ZM96.1668 12.87C97.4554 12.87 98.3285 13.6645 98.4667 14.8752H93.7874C93.9457 13.7037 94.7593 12.87 96.1668 12.87Z" fill="#D9D9D9"/>
<path fill-rule="evenodd" clip-rule="evenodd" d="M110.083 12.3513V6.9082H112.568V20.8143H110.122V19.423H109.846C109.334 20.2584 108.467 21.0922 106.731 21.0922C104.285 21.0922 102.234 18.9077 102.234 15.8879C102.234 12.8681 104.285 10.6821 106.731 10.6821C108.467 10.6821 109.334 11.5175 109.846 12.3513H110.083ZM107.401 12.9072C105.903 12.9072 104.719 13.9799 104.719 15.8879C104.719 17.7945 105.903 18.8672 107.401 18.8672C108.939 18.8672 110.083 17.7554 110.083 15.8879C110.083 14.0204 108.939 12.9072 107.401 12.9072Z" fill="#D9D9D9"/>
</g>
<defs>
<clipPath id="clip0_663_193">
<rect width="113" height="28" fill="white"/>
</clipPath>
</defs>
</svg>
